<?xml version="1.0" encoding="utf-8"?>
<!-- Generator: Adobe Illustrator 25.0.1, SVG Export Plug-In . SVG Version: 6.00 Build 0)  -->
<svg version="1.1" id="Layer_1" xmlns="http://www.w3.org/2000/svg" xmlns:xlink="http://www.w3.org/1999/xlink" x="0px" y="0px"
	 viewBox="0 0 400 400" style="enable-background:new 0 0 400 400;" xml:space="preserve">
<style type="text/css">
	.st0{fill:#A55E26;}
	.st1{fill:none;stroke:#000000;stroke-width:10;stroke-miterlimit:10;}
	.st2{stroke:#000000;stroke-width:3;stroke-miterlimit:10;}
	.st3{fill:none;stroke:#000000;stroke-width:11;stroke-miterlimit:10;}
</style>
<g>
	<path class="st0" d="M121.11,349.1c0,0,116.52-12.29,106.55-116.23c-7.86-81.89,56.84-116.07,64.16-116.52s44.02,41.95,53.19,76.38
		c13.48,50.6,2.88,72.77,2.88,72.77s-4.81,58.7-80.27,96.56S133.92,358.46,121.11,349.1z"/>
	<path class="st0" d="M288.98,110.91c0,0-61.02-57.55-153.39-4.99S59.81,260.28,66.23,277.46c3.2,8.57,6.31,18.33,11.26,25.14
		c0.76,1.04,22.13,36.8,30.59,36.58c33.91-0.88,62.17-23.4,73.47-41.51c28.06-44.96,13.15-81.56,21.37-105.28
		c3.28-11.44,9.38-27.32,21.26-43.5C246.49,118.5,275.61,115.87,288.98,110.91z"/>
</g>
<g>
	<circle class="st1" cx="205.95" cy="230.61" r="155.12"/>
	<path class="st1" d="M264.8,55.76l-119.7,0c-5.52,0-10-4.48-10-10V31.26c0-5.52,4.48-10,10-10l119.7,0c5.52,0,10,4.48,10,10
		l0,14.49C274.8,51.28,270.33,55.76,264.8,55.76z"/>
	<circle class="st2" cx="205.95" cy="230.24" r="21.55"/>
	<rect x="197.03" y="88.21" class="st2" width="16.38" height="122.32"/>
	<path class="st3" d="M93.3,261.66c0,0-23.85-131.47,105.03-144.81"/>
	<path class="st3" d="M135.11,226.53c0,0-4.96-59.42,61.92-70.82"/>
	<path d="M329.99,239.54h-35.51c-3.31,0-6-2.69-6-6v-5.57c0-3.31,2.69-6,6-6h35.51c3.31,0,6,2.69,6,6v5.57
		C335.99,236.86,333.31,239.54,329.99,239.54z"/>
	<path d="M197.17,354.45v-35.51c0-3.31,2.69-6,6-6h5.57c3.31,0,6,2.69,6,6v35.51c0,3.31-2.69,6-6,6h-5.57
		C199.85,360.45,197.17,357.76,197.17,354.45z"/>
	<path d="M103.97,319.35l12.24-11.36c1.96-1.82,5.03-1.71,6.86,0.25l5.35,5.77c1.82,1.96,1.71,5.03-0.25,6.86l-12.24,11.36
		c-1.96,1.82-5.03,1.71-6.86-0.25l-5.35-5.77C101.89,324.25,102,321.18,103.97,319.35z"/>
	<path d="M283.54,141.53l12.24-11.36c1.96-1.82,5.03-1.71,6.86,0.25l5.35,5.77c1.82,1.96,1.71,5.03-0.25,6.86l-12.24,11.36
		c-1.96,1.82-5.03,1.71-6.86-0.25l-5.35-5.77C281.46,146.43,281.57,143.36,283.54,141.53z"/>
	<path d="M295.95,307.94l11.81,11.81c1.89,1.89,1.89,4.97,0,6.86l-5.57,5.57c-1.89,1.89-4.97,1.89-6.86,0l-11.81-11.81
		c-1.89-1.89-1.89-4.97,0-6.86l5.57-5.57C290.98,306.04,294.05,306.04,295.95,307.94z"/>
</g>
</svg>
